<?xml version="1.0" encoding="UTF-8" standalone="no"?>
<!-- Created with Inkscape (http://www.inkscape.org/) -->

<svg
   width="120"
   height="120"
   viewBox="0 0 31.749998 31.749998"
   version="1.1"
   id="svg847"
   inkscape:version="1.1.2 (0a00cf5339, 2022-02-04)"
   sodipodi:docname="mf_logo_white_wide.svg"
   inkscape:export-filename="/home/kihoulou/Desktop/MilleFEuiIle_private-main/MilleFEuiIle_private/docs/_static/mf_logo_white_wide.png"
   inkscape:export-xdpi="1000"
   inkscape:export-ydpi="1000"
   xmlns:inkscape="http://www.inkscape.org/namespaces/inkscape"
   xmlns:sodipodi="http://sodipodi.sourceforge.net/DTD/sodipodi-0.dtd"
   xmlns="http://www.w3.org/2000/svg"
   xmlns:svg="http://www.w3.org/2000/svg">
  <sodipodi:namedview
     id="namedview849"
     pagecolor="#ffffff"
     bordercolor="#666666"
     borderopacity="1.0"
     inkscape:pageshadow="2"
     inkscape:pageopacity="0.0"
     inkscape:pagecheckerboard="0"
     inkscape:document-units="px"
     showgrid="false"
     units="px"
     inkscape:zoom="3.6233469"
     inkscape:cx="17.939215"
     inkscape:cy="-5.6577525"
     inkscape:window-width="1920"
     inkscape:window-height="989"
     inkscape:window-x="1920"
     inkscape:window-y="28"
     inkscape:window-maximized="1"
     inkscape:current-layer="layer1" />
  <defs
     id="defs844">
    <clipPath
       clipPathUnits="userSpaceOnUse"
       id="clipPath8476">
      <rect
         style="display:none;fill:#000000;fill-opacity:1;stroke:#fff0f0;stroke-width:0.00999998;stroke-linecap:round;stroke-linejoin:round;stroke-miterlimit:4;stroke-dasharray:none;stroke-opacity:1"
         id="rect8478"
         width="9.2118769"
         height="0.33787915"
         x="53.411442"
         y="21.183796"
         ry="0.044797342"
         inkscape:export-filename="mf_logo_black.png"
         inkscape:export-xdpi="200"
         inkscape:export-ydpi="200"
         d="m 53.456239,21.183796 h 9.122282 c 0.02482,0 0.0448,0.01998 0.0448,0.0448 v 0.248285 c 0,0.02482 -0.01998,0.0448 -0.0448,0.0448 h -9.122282 c -0.02482,0 -0.0448,-0.01998 -0.0448,-0.0448 v -0.248285 c 0,-0.02482 0.01998,-0.0448 0.0448,-0.0448 z" />
      <path
         id="lpe_path-effect8480"
         style="fill:#000000;fill-opacity:1;stroke:#fff0f0;stroke-width:0.00999998;stroke-linecap:round;stroke-linejoin:round;stroke-miterlimit:4;stroke-dasharray:none;stroke-opacity:1"
         class="powerclip"
         d="m 45.522047,16.217044 h 35.394572 v 12.65 H 45.522047 Z m 7.934192,4.966752 c -0.02482,0 -0.0448,0.01998 -0.0448,0.0448 v 0.248285 c 0,0.02482 0.01998,0.0448 0.0448,0.0448 h 9.122282 c 0.02482,0 0.0448,-0.01998 0.0448,-0.0448 v -0.248285 c 0,-0.02482 -0.01998,-0.0448 -0.0448,-0.0448 z" />
    </clipPath>
    <inkscape:path-effect
       effect="powerclip"
       id="path-effect8480"
       is_visible="true"
       lpeversion="1"
       inverse="true"
       flatten="false"
       hide_clip="false"
       message="Use fill-rule evenodd on &lt;b&gt;fill and stroke&lt;/b&gt; dialog if no flatten result after convert clip to paths." />
  </defs>
  <g
     inkscape:label="Layer 1"
     inkscape:groupmode="layer"
     id="layer1">
    <rect
       style="fill:none;fill-opacity:1;stroke:#000000;stroke-width:0.3;stroke-linecap:round;stroke-linejoin:round;stroke-miterlimit:4;stroke-dasharray:none;stroke-opacity:1"
       id="rect846-0-6-1-6-4-8"
       width="25.094572"
       height="22.717134"
       x="3.5214288"
       y="4.5826578"
       ry="0.31141526"
       inkscape:export-filename="mf_logo_black.png"
       inkscape:export-xdpi="200"
       inkscape:export-ydpi="200" />
    <path
       style="fill:#f0a46b;fill-opacity:1;stroke:#000000;stroke-width:0.3;stroke-linecap:round;stroke-linejoin:round;stroke-miterlimit:4;stroke-dasharray:none;stroke-opacity:1"
       id="rect846-0-6-1-6-4"
       width="25.094572"
       height="2.3499999"
       x="50.672047"
       y="21.367044"
       ry="0.31157219"
       inkscape:export-filename="mf_logo_black.png"
       inkscape:export-xdpi="200"
       inkscape:export-ydpi="200"
       clip-path="url(#clipPath8476)"
       inkscape:path-effect="#path-effect8480"
       sodipodi:type="rect"
       transform="translate(-47.137708,-17.791257)"
       d="m 50.983619,21.367044 h 24.471428 c 0.172611,0 0.311572,0.138962 0.311572,0.311573 v 1.726855 c 0,0.172611 -0.138961,0.311572 -0.311572,0.311572 H 50.983619 c -0.172611,0 -0.311572,-0.138961 -0.311572,-0.311572 v -1.726855 c 0,-0.172611 0.138961,-0.311573 0.311572,-0.311573 z" />
    <rect
       style="fill:#f0a46b;fill-opacity:1;stroke:#000000;stroke-width:0.3;stroke-linecap:round;stroke-linejoin:round;stroke-miterlimit:4;stroke-dasharray:none;stroke-opacity:1"
       id="rect846-0-6-1-6"
       width="8.9072456"
       height="2.3499999"
       x="18.38846"
       y="15.557661"
       ry="0.31157219"
       inkscape:export-filename="mf_logo_black.png"
       inkscape:export-xdpi="200"
       inkscape:export-ydpi="200" />
    <path
       style="fill:#ff5e99;fill-opacity:1;stroke:#000000;stroke-width:0.3;stroke-linecap:butt;stroke-linejoin:miter;stroke-miterlimit:4;stroke-dasharray:none;stroke-opacity:1"
       d="m 3.528415,27.165542 c 1.92162,-0.900501 3.64675,-0.305501 5.38705,-1.35711 1.37381,-0.89786 2.6406,-3.851292 2.578,-5.428682 -0.0625,-1.57739 -0.36144,-4.429806 -0.6571,-5.312064 -0.29567,-0.882259 -0.73435,-1.247285 -1.30559,-1.690752 -0.57125,-0.443466 -1.35089,-0.597882 -2.11392,-0.271972 -0.76303,0.325908 -2.20818,2.236929 -2.65517,0.648377 -0.1120901,-0.419302 -0.0678,-1.165211 0.32413,-1.841443 0.52111,-0.95963 1.4068,-1.124775 2.2114,-1.338056 0.45073,-0.116835 2.01472,-0.460855 4.04991,-0.410708 2.03519,0.05015 4.04892,1.057775 5.10639,2.017863 1.02917,0.938865 0.32312,1.670679 -0.34427,1.932389 -0.66739,0.261708 -1.7845,-0.841908 -2.73426,-1.116578 -0.94976,-0.27467 -1.51633,-0.13712 -1.36129,1.133926 0.15504,1.271046 0.96466,3.826762 0.88557,6.362877 -0.0791,2.536112 0.71636,3.884262 2.03178,4.796502 1.60061,1.11002 9.97938,2.14317 13.67087,2.21109"
       id="path76743-7-6-3-6"
       sodipodi:nodetypes="cczzzzccczczzzzsc"
       inkscape:export-filename="/media/kihoulou/8AD2-61E4/MSCA_BISCUIT/ganymede_idea.png"
       inkscape:export-xdpi="100"
       inkscape:export-ydpi="100" />
    <rect
       style="fill:#fde9b7;fill-opacity:1;stroke:#000000;stroke-width:0.3;stroke-linecap:round;stroke-linejoin:round;stroke-miterlimit:4;stroke-dasharray:none;stroke-opacity:1"
       id="rect846-5-3-5-62-2-2-3-2-06-5-0-6-7"
       width="8.9890938"
       height="5.3344893"
       x="18.517229"
       y="8.4826765"
       ry="2.6672447"
       rx="0.72180712" />
    <rect
       style="fill:#fde9b7;fill-opacity:1;stroke:#000000;stroke-width:0.3;stroke-linecap:round;stroke-linejoin:round;stroke-miterlimit:4;stroke-dasharray:none;stroke-opacity:1"
       id="rect846-5-3-5-62-2-2-3-2-06-5-0-6-7-3"
       width="8.9890938"
       height="5.3344893"
       x="18.359354"
       y="19.607126"
       ry="2.6672447"
       rx="0.72180712" />
    <path
       id="rect846-0-5-8"
       style="fill:#f0a46b;stroke:#000000;stroke-width:0.3;stroke-linecap:round;stroke-linejoin:round;stroke-dasharray:none"
       d="m 11.961385,25.757902 c 1.88599,-0.0384 2.85324,0.35631 4.91172,0.483699 0.91246,0.0565 3.29454,0.561571 5.6716,0.63408 2.98552,0.0911 5.98205,-0.5741 6.0301,-0.5741 0.0863,0 0.0326,0.079 0.0326,0.25155 v 1.72686 c 0,0.17261 -0.13896,0.311571 -0.31157,0.311571 0,0 -1.644,0.16903 -5.82202,-0.044 -4.09563,-0.20886 -8.48371,-0.77553 -10.50767,-0.68837 -4.08865,0.17607 -8.1613101,0.7324 -8.1613101,0.7324 -0.17122,0.0218 -0.3115699,-0.13896 -0.3115699,-0.31157 v -1.75212 c 0,-0.17261 -0.0306,-0.1959 0.1418599,-0.18994 2.9062701,0.61457 6.4403101,-0.54164 8.3263001,-0.58006 z"
       sodipodi:nodetypes="zssssssssssscz" />
    <path
       sodipodi:type="star"
       style="fill:none;fill-opacity:1;stroke:#000000;stroke-width:1.44309;stroke-linecap:round;stroke-linejoin:round;stroke-dasharray:none;stroke-opacity:1"
       id="path6256"
       inkscape:flatsided="true"
       sodipodi:sides="3"
       sodipodi:cx="38.776302"
       sodipodi:cy="0.7589668"
       sodipodi:r1="8.4034815"
       sodipodi:r2="7.9180126"
       sodipodi:arg1="1.0078454"
       sodipodi:arg2="2.055043"
       inkscape:rounded="0"
       inkscape:randomized="0"
       transform="matrix(0.21845636,0.09332457,-0.13900374,0.13844649,-0.18520806,0.77169514)"
       inkscape:transform-center-x="-0.37839414"
       inkscape:transform-center-y="0.49219909"
       d="M 43.261107,7.8656561 30.379327,1.0895765 42.688474,-6.6783322 Z" />
    <path
       sodipodi:type="star"
       style="fill:none;fill-opacity:1;stroke:#000000;stroke-width:1.45357;stroke-linecap:round;stroke-linejoin:round;stroke-dasharray:none;stroke-opacity:1"
       id="path6256-5"
       inkscape:flatsided="true"
       sodipodi:sides="3"
       sodipodi:cx="38.776302"
       sodipodi:cy="0.7589668"
       sodipodi:r1="8.4034815"
       sodipodi:r2="7.9180126"
       sodipodi:arg1="1.0078454"
       sodipodi:arg2="2.055043"
       inkscape:rounded="0"
       inkscape:randomized="0"
       transform="matrix(0.2117506,0.09844814,-0.13885769,0.1366024,1.985074,0.60007514)"
       inkscape:transform-center-x="-0.38142272"
       inkscape:transform-center-y="0.48409789"
       d="M 43.261107,7.8656561 30.379327,1.0895765 42.688474,-6.6783322 Z" />
    <path
       sodipodi:type="star"
       style="fill:none;fill-opacity:1;stroke:#000000;stroke-width:1.44306;stroke-linecap:round;stroke-linejoin:round;stroke-dasharray:none;stroke-opacity:1"
       id="path6256-3"
       inkscape:flatsided="true"
       sodipodi:sides="3"
       sodipodi:cx="38.776302"
       sodipodi:cy="0.7589668"
       sodipodi:r1="8.4034815"
       sodipodi:r2="7.9180126"
       sodipodi:arg1="1.0078454"
       sodipodi:arg2="2.055043"
       inkscape:rounded="0"
       inkscape:randomized="0"
       transform="matrix(0.22610143,0.0775146,-0.12940708,0.14678461,3.438073,1.3694701)"
       inkscape:transform-center-x="-0.34025085"
       inkscape:transform-center-y="0.43400486"
       d="M 43.261107,7.8656561 30.379327,1.0895765 42.688474,-6.6783322 Z" />
    <path
       sodipodi:type="star"
       style="fill:none;fill-opacity:1;stroke:#000000;stroke-width:1.46669;stroke-linecap:round;stroke-linejoin:round;stroke-dasharray:none;stroke-opacity:1"
       id="path6256-5-7"
       inkscape:flatsided="true"
       sodipodi:sides="3"
       sodipodi:cx="38.776302"
       sodipodi:cy="0.7589668"
       sodipodi:r1="8.4034815"
       sodipodi:r2="7.9180126"
       sodipodi:arg1="1.0078454"
       sodipodi:arg2="2.055043"
       inkscape:rounded="0"
       inkscape:randomized="0"
       transform="matrix(0.20443282,0.09083691,-0.12426929,0.14943391,5.890166,0.85265014)"
       inkscape:transform-center-x="-0.33345409"
       inkscape:transform-center-y="0.51232814"
       d="M 43.261107,7.8656561 30.379327,1.0895765 42.688474,-6.6783322 Z" />
    <path
       style="fill:none;stroke:#000000;stroke-width:0.264583px;stroke-linecap:round;stroke-linejoin:round;stroke-opacity:1"
       d="m 6.254909,3.5576891 0.20081,0.239603"
       id="path8591" />
    <path
       style="fill:none;stroke:#000000;stroke-width:0.264583px;stroke-linecap:round;stroke-linejoin:round;stroke-opacity:1"
       d="m 6.118527,3.5848881 0.20081,0.239603"
       id="path8591-8" />
    <path
       style="fill:none;stroke:#000000;stroke-width:0.264583px;stroke-linecap:round;stroke-linejoin:round;stroke-opacity:1"
       d="m 15.492558,3.5587751 -0.20081,0.239603"
       id="path8591-2" />
    <path
       style="fill:none;stroke:#000000;stroke-width:0.264583px;stroke-linecap:round;stroke-linejoin:round;stroke-opacity:1"
       d="m 15.61813,3.5642681 -0.20081,0.239603"
       id="path8591-2-2" />
  </g>
</svg>
